<?xml version="1.0" encoding="UTF-8"?>
<svg width="725px" height="527px" viewBox="0 0 725 527" version="1.1" xmlns="http://www.w3.org/2000/svg" xmlns:xlink="http://www.w3.org/1999/xlink">
    <!-- Generator: Sketch 53.2 (72643) - https://sketchapp.com -->
    <title>great</title>
    <desc>Created with Sketch.</desc>
    <g id="Page-1" stroke="none" stroke-width="1" fill="none" fill-rule="evenodd">
        <g id="great" transform="translate(13.000000, 13.000000)">
            <path d="M265.316474,500.400185 L578.441474,500.400185 C641.860745,489.301226 680.550849,456.39107 694.511787,401.669716 C708.472724,346.948362 685.791735,303.064247 626.468818,270.017372 C652.638089,250.996539 665.722724,223.301226 665.722724,186.931435 C665.722724,150.561643 612.631579,120.954872 506.449287,98.1111221 C540.550849,75.6423721 557.601631,52.2608617 557.601631,27.9665909 C557.601631,3.67232006 532.370704,-4.79382577 481.908852,2.56815339 C327.896746,46.0577367 250.890693,90.8637263 250.890693,136.986122 C250.890693,162.063647 250.890693,161.908045 250.890693,161.907997 C250.890693,161.907971 250.890693,157.309012 250.890693,148.111122 C192.171943,150.94706 147.160224,166.043414 115.855537,193.400185 C84.5508495,220.756955 86.7552765,255.598101 122.468818,297.923622 C50.0104849,309.08508 9.72142237,338.954872 1.6016307,387.532997 C-6.51816096,436.111122 16.2357453,473.733518 69.8633495,500.400185 L265.316474,500.400185 Z" id="Path" stroke="#FF8900" stroke-width="26"></path>
            <circle id="Oval" fill="#FF8900" cx="312.644599" cy="235.782997" r="37"></circle>
            <path d="M235,327 C338.331495,475.91942 433.803957,475.91942 521.417386,327" id="Path-2" stroke="#FF8900" stroke-width="25"></path>
            <circle id="Oval" fill="#FF8900" cx="458.644599" cy="235.782997" r="37"></circle>
        </g>
    </g>
</svg>