<?xml version="1.0" encoding="UTF-8"?>
<svg width="760px" height="1133px" viewBox="0 0 760 1133" version="1.1" xmlns="http://www.w3.org/2000/svg" xmlns:xlink="http://www.w3.org/1999/xlink">
    <!-- Generator: Sketch 53.2 (72643) - https://sketchapp.com -->
    <title>logo</title>
    <desc>Created with Sketch.</desc>
    <g id="Page-1" stroke="none" stroke-width="1" fill="none" fill-rule="evenodd">
        <g id="logo" transform="translate(13.000000, 0.000000)">
            <g id="great" transform="translate(0.000000, 270.000000)">
                <path d="M278.420378,516 L607.01053,516 C673.56206,504.555035 714.163057,470.618915 728.813521,414.191641 C743.463985,357.764366 719.662788,312.512178 657.40993,278.435077 C684.871693,258.821275 698.602575,230.26257 698.602575,192.758962 C698.602575,155.255354 642.889273,124.725602 531.462669,101.169705 C567.248498,78.0004988 585.141412,53.8900773 585.141412,28.8384404 C585.141412,3.78680346 558.664338,-4.94327175 505.710189,2.64821475 C344.09147,47.4935719 263.282111,93.6963739 263.282111,141.256621 C263.282111,167.11593 263.282111,166.955476 263.282111,166.955427 C263.282111,166.9554 263.282111,162.21307 263.282111,152.728439 C201.663259,155.652786 154.428425,171.219764 121.577608,199.429373 C88.7267912,227.638983 91.0400943,263.56629 128.517517,307.211296 C52.4804881,318.720709 10.2015606,349.521682 1.68073478,399.614214 C-6.84009103,449.706747 17.037624,488.502009 73.3138798,516 L278.420378,516 Z" id="Path" stroke="#FF8900" stroke-width="26"></path>
                <ellipse id="Oval" fill="#FF8900" cx="328.375867" cy="243" rx="38.6324549" ry="38"></ellipse>
                <path d="M247.044383,338 C355.610363,491.333333 455.919193,491.333333 547.970874,338" id="Path-2" stroke="#FF8900" stroke-width="25"></path>
                <ellipse id="Oval" fill="#FF8900" cx="481.889043" cy="243" rx="38.6324549" ry="38"></ellipse>
            </g>
            <polygon id="Path-3" fill="#FF8900" points="75 233 658 233 658 0 75 0"></polygon>
            <polygon id="Path-4" fill="#FF8900" points="75 823 658 823 658 1133 366.828837 978 75 1133"></polygon>
        </g>
    </g>
</svg>